<svg xmlns="http://www.w3.org/2000/svg" width="1120" height="600" viewBox="0 0 1120 600" role="img" aria-labelledby="title desc">
  <title id="title">Dashboard preview</title>
  <desc id="desc">Codex Gestion dashboard with quota charts and account cards.</desc>
  <rect width="1120" height="600" rx="24" fill="#151515"/>
  <rect x="34" y="32" width="1052" height="536" rx="18" fill="#1e1e1e" stroke="#333"/>
  <text x="70" y="88" font-family="Inter, Segoe UI, Arial" font-size="31" font-weight="850" fill="#f3f4f6">Panel de uso de Codex</text>
  <text x="70" y="118" font-family="Inter, Segoe UI, Arial" font-size="14" fill="#9ca3af">Tu uso, explicado de forma sencilla. Actualizado desde sesiones locales.</text>
  <rect x="788" y="58" width="108" height="34" rx="8" fill="#0e639c"/><text x="842" y="80" text-anchor="middle" font-family="Inter, Segoe UI, Arial" font-size="13" font-weight="700" fill="#fff">Actualizar</text>
  <rect x="908" y="58" width="132" height="34" rx="8" fill="#2d2d30" stroke="#444"/><text x="974" y="80" text-anchor="middle" font-family="Inter, Segoe UI, Arial" font-size="13" font-weight="700" fill="#e5e7eb">Cuentas</text>

  <rect x="70" y="150" width="980" height="70" rx="14" fill="#222" stroke="#3a3a3a"/>
  <circle cx="106" cy="185" r="20" fill="#4ec9b0"/><text x="106" y="192" text-anchor="middle" font-family="Inter, Segoe UI, Arial" font-size="20" font-weight="900" fill="#111">✓</text>
  <text x="142" y="179" font-family="Inter, Segoe UI, Arial" font-size="16" font-weight="800" fill="#f3f4f6">Todo razonable</text>
  <text x="142" y="201" font-family="Inter, Segoe UI, Arial" font-size="13" fill="#9ca3af">Puedes seguir trabajando; vigila la cuota semanal si vas a abrir sesiones largas.</text>
  <text x="906" y="179" text-anchor="end" font-family="Inter, Segoe UI, Arial" font-size="12" fill="#9ca3af">Proxima renovacion</text>
  <text x="906" y="201" text-anchor="end" font-family="Inter, Segoe UI, Arial" font-size="18" font-weight="800" fill="#f3f4f6">01:06 PM</text>

  <g transform="translate(70 246)">
    <rect width="470" height="190" rx="14" fill="#222" stroke="#3a3a3a"/>
    <circle cx="90" cy="95" r="62" fill="none" stroke="#555" stroke-width="18"/>
    <path d="M90 33a62 62 0 1 1-52 95" fill="none" stroke="#7dd87d" stroke-width="18" stroke-linecap="round"/>
    <circle cx="90" cy="95" r="40" fill="#171717" stroke="#333"/>
    <text x="90" y="98" text-anchor="middle" font-family="Inter, Segoe UI, Arial" font-size="26" font-weight="850" fill="#f3f4f6">58%</text>
    <text x="90" y="120" text-anchor="middle" font-family="Inter, Segoe UI, Arial" font-size="10" font-weight="800" fill="#9ca3af">LIBRE</text>
    <text x="185" y="66" font-family="Inter, Segoe UI, Arial" font-size="14" font-weight="800" fill="#cbd5e1">Cuota de 5h</text>
    <text x="185" y="102" font-family="Inter, Segoe UI, Arial" font-size="27" font-weight="850" fill="#f8fafc">58% disponible</text>
    <text x="185" y="137" font-family="Inter, Segoe UI, Arial" font-size="13" fill="#cbd5e1">Se renueva hoy a las 01:06 PM</text>
  </g>
  <g transform="translate(580 246)">
    <rect width="470" height="190" rx="14" fill="#222" stroke="#3a3a3a"/>
    <circle cx="90" cy="95" r="62" fill="none" stroke="#555" stroke-width="18"/>
    <path d="M90 33a62 62 0 1 1-42 108" fill="none" stroke="#7dd87d" stroke-width="18" stroke-linecap="round"/>
    <circle cx="90" cy="95" r="40" fill="#171717" stroke="#333"/>
    <text x="90" y="98" text-anchor="middle" font-family="Inter, Segoe UI, Arial" font-size="26" font-weight="850" fill="#f3f4f6">78%</text>
    <text x="90" y="120" text-anchor="middle" font-family="Inter, Segoe UI, Arial" font-size="10" font-weight="800" fill="#9ca3af">LIBRE</text>
    <text x="185" y="66" font-family="Inter, Segoe UI, Arial" font-size="14" font-weight="800" fill="#cbd5e1">Cuota de 7 dias</text>
    <text x="185" y="102" font-family="Inter, Segoe UI, Arial" font-size="27" font-weight="850" fill="#f8fafc">78% disponible</text>
    <text x="185" y="137" font-family="Inter, Segoe UI, Arial" font-size="13" fill="#cbd5e1">Uso largo plazo de la cuenta activa</text>
  </g>

  <rect x="70" y="466" width="980" height="62" rx="12" fill="#202020" stroke="#333"/>
  <text x="94" y="493" font-family="Inter, Segoe UI, Arial" font-size="14" font-weight="800" fill="#f3f4f6">Yeray-Personal</text>
  <text x="94" y="514" font-family="Inter, Segoe UI, Arial" font-size="12" fill="#9ca3af">CHATGPT - Plan local PLUS - credencial guardada en SecretStorage</text>
  <rect x="870" y="482" width="84" height="28" rx="7" fill="#2d2d30" stroke="#444"/><text x="912" y="501" text-anchor="middle" font-family="Inter, Segoe UI, Arial" font-size="12" font-weight="700" fill="#e5e7eb">Renombrar</text>
</svg>